<svg xmlns="http://www.w3.org/2000/svg" xmlns:xlink="http://www.w3.org/1999/xlink" aria-hidden="true" role="img" class="iconify iconify--logos" width="188.57" height="169.02" preserveAspectRatio="xMidYMid meet" viewBox="0 0 256 228.53"><path d="M127.75.47c-68.38 0-124.75 56.3-125.1 124.6l-1.35 167.07c.35 68.3 56.72 124.4 125.1 124.4 68.74 0 124.91-56.29 125.1-124.55l1.35-167.16c-.19-68.26-56.36-124.36-125.1-124.36Zm90.94 169.9-60.25 34.8-60.64-34.9 5.05-49.55 55.24-32.3 55.64 32.25ZM45.14 120.8l50.14-28.6 49.85 28.8-4.85 47.7-50.05 28.65-50.15-28.65Zm55.94 69.15 50.1-28.7 50.1 28.7-4.9 48.35-50.1 29.15-50.1-29.05Zm55.8 68.6 50.15-29.15 50.15 29.15-5 49.45-50.1 28.75-50.2-28.75Z" fill="#61DAFB"></path></svg>
